<svg width="905" height="438" viewBox="0 0 905 438" fill="none" xmlns="http://www.w3.org/2000/svg">
<g clip-path="url(#clip0_33_16)">
<path d="M279.423 90.5756H251.399V203.297H278.721V116.194H371.217V90.5756H279.423Z" fill="white"/>
<path d="M251.399 1.76483V62.9266L278.721 89.8734V27.3833H378.048V1.76483H251.399Z" fill="white"/>
<path d="M614.838 1.76483V166.482V161.529L526.743 1.76483H467.413V201.532H494.735V2.56185H495.304L607.438 201.532H642.16V1.76483H614.838Z" fill="white"/>
<path d="M117.636 436.88L182.715 234.741H152.832L91.3576 435.666H90.7884L31.5909 234.741H0L63.6752 436.88H117.636Z" fill="white"/>
<path d="M877.678 236.81V400.085V395.17L789.603 236.81H730.254V434.831H757.576V237.607H758.145L870.278 434.831H905V236.81H877.678Z" fill="white"/>
<path d="M692.003 296.681C686.785 284.612 679.575 274.156 670.373 265.275C661.171 256.412 650.109 249.448 637.226 244.381C625.558 239.808 612.864 237.322 599.184 236.885L609.942 262.011C615.672 262.997 621.061 264.553 626.127 266.736C635.424 270.721 643.393 276.091 650.034 282.828C656.674 289.565 661.797 297.516 665.402 306.644C669.007 315.79 670.81 325.487 670.81 335.773C670.81 346.058 669.007 355.774 665.402 364.902C661.797 374.049 656.674 381.981 650.034 388.718C643.393 395.454 635.424 400.825 626.127 404.81C620.663 407.163 614.8 408.795 608.538 409.763L597.856 434.679C612.049 434.356 625.159 431.871 637.207 427.164C650.109 422.117 661.152 415.152 670.354 406.271C679.556 397.409 686.766 386.934 691.984 374.865C697.202 362.796 699.801 349.759 699.801 335.754C699.801 321.749 697.183 308.712 691.984 296.643L692.003 296.681Z" fill="white"/>
<path d="M586.434 410.465C578.143 409.725 570.496 407.846 563.495 404.848C554.198 400.863 546.229 395.492 539.589 388.756C532.948 382.019 527.825 374.087 524.22 364.94C520.615 355.812 518.813 346.096 518.813 335.811C518.813 325.525 520.615 315.809 524.22 306.682C527.825 297.554 532.948 289.603 539.589 282.866C546.229 276.129 554.198 270.759 563.495 266.774C570.914 263.586 579.092 261.688 587.971 261.043L598.805 236.905C597.477 236.867 596.149 236.829 594.802 236.829C579.433 236.829 565.298 239.353 552.396 244.419C539.494 249.467 528.432 256.431 519.249 265.313C510.047 274.194 502.837 284.65 497.619 296.719C492.401 308.788 489.802 321.825 489.802 335.83C489.802 349.835 492.401 362.89 497.619 374.941C502.837 387.01 510.047 397.466 519.249 406.347C528.451 415.228 539.494 422.174 552.396 427.24C565.298 432.288 579.433 434.831 594.802 434.831C595.655 434.831 596.471 434.793 597.325 434.774L586.434 410.503V410.465Z" fill="white"/>
<path d="M290.39 392.399C295.323 399.534 301.622 404.81 309.326 408.188C317.01 411.585 324.922 413.273 333.08 413.273C337.634 413.273 342.283 412.59 347.026 411.205C351.769 409.839 356.076 407.77 359.966 405.019C363.856 402.267 367.024 398.889 369.51 394.847C371.976 390.824 373.21 386.156 373.21 380.842C373.21 373.328 370.743 367.616 365.81 363.668C360.877 359.74 354.748 356.438 347.462 353.782C340.158 351.125 332.189 348.563 323.556 346.096C314.923 343.629 306.954 340.194 299.649 335.792C292.344 331.389 286.216 325.487 281.302 318.068C276.369 310.648 273.902 300.628 273.902 287.99C273.902 282.316 275.192 276.262 277.754 269.867C280.315 263.453 284.337 257.608 289.859 252.276C295.361 246.962 302.419 242.522 311.052 238.954C319.685 235.386 330.064 233.603 342.207 233.603C353.211 233.603 363.742 235.064 373.798 238.005C383.854 240.928 392.676 246.886 400.266 255.862L378.067 275.37C374.652 270.246 369.813 266.129 363.552 263.016C357.291 259.904 350.176 258.348 342.207 258.348C334.238 258.348 328.299 259.316 323.29 261.233C318.262 263.149 314.221 265.635 311.185 268.652C308.149 271.67 306.005 274.934 304.772 278.406C303.539 281.879 302.932 285.086 302.932 288.028C302.932 296.263 305.398 302.583 310.331 306.985C315.264 311.388 321.374 314.955 328.679 317.707C335.983 320.459 343.952 322.926 352.585 325.127C361.218 327.328 369.187 330.402 376.492 334.331C383.797 338.278 389.906 343.572 394.839 350.271C399.772 356.951 402.239 366.154 402.239 377.882C402.239 387.219 400.399 395.644 396.699 403.159C392.999 410.674 388.009 416.993 381.748 422.117C375.486 427.24 368.087 431.187 359.549 433.939C351.01 436.691 341.903 438.057 332.227 438.057C319.325 438.057 307.087 435.856 295.513 431.472C283.939 427.069 274.737 420.295 267.906 411.148L290.39 392.475V392.399Z" fill="white"/>
<path d="M436.24 0H408.918V26.2827L436.24 25.7893V0Z" fill="white"/>
<path d="M408.918 26.2827V201.532H436.24V50.0983L408.918 26.2827Z" fill="white"/>
<path d="M241.78 235.064H214.458V261.346L241.78 260.853V235.064Z" fill="white"/>
<path d="M214.458 261.346V436.596H241.78V285.162L214.458 261.346Z" fill="white"/>
<path d="M460.431 235.064H433.109V261.346L460.431 260.853V235.064Z" fill="white"/>
<path d="M433.109 261.346V436.596H460.431V285.162L433.109 261.346Z" fill="white"/>
<path d="M901.376 174.851V3.77637H901.205V1.59406H728.261L701.148 28.427H851.058L706.67 171.283L699.839 196.94L727.123 189.823L874.244 44.2725V201.703L901.376 174.851Z" fill="white"/>
</g>
<defs>
<clipPath id="clip0_33_16">
<rect width="905" height="438" fill="white"/>
</clipPath>
</defs>
</svg>
